<svg xmlns="http://www.w3.org/2000/svg" xmlns:xlink="http://www.w3.org/1999/xlink" width="100" zoomAndPan="magnify" viewBox="0 0 75 74.999997" height="100" preserveAspectRatio="xMidYMid meet" version="1.0"><defs><clipPath id="76fe92b437"><path d="M 7.5 11.667969 L 69 11.667969 L 69 67.167969 L 7.5 67.167969 Z M 7.5 11.667969 " clip-rule="nonzero"/></clipPath></defs><g clip-path="url(#76fe92b437)"><path fill="#1baa5a" d="M 68.148438 65.960938 L 64.476562 65.960938 L 64.476562 61.222656 C 65.027344 61.136719 65.570312 60.964844 66.085938 60.699219 C 67.980469 59.71875 69.058594 57.789062 68.894531 55.664062 C 68.574219 51.4375 66.882812 47.511719 64.253906 44.894531 C 63.953125 44.597656 63.472656 44.597656 63.175781 44.894531 C 61.621094 46.4375 60.40625 48.402344 59.597656 50.644531 C 58.945312 49.402344 58.136719 48.285156 57.199219 47.351562 C 56.902344 47.054688 56.417969 47.054688 56.121094 47.351562 C 55.480469 47.988281 54.898438 48.714844 54.386719 49.507812 L 54.386719 28.039062 C 54.386719 27.011719 53.550781 26.175781 52.523438 26.175781 L 39.941406 26.175781 L 39.941406 24.699219 C 39.941406 23.667969 39.105469 22.832031 38.078125 22.832031 L 35.546875 22.832031 L 35.546875 20.324219 C 35.546875 19.296875 34.710938 18.460938 33.679688 18.460938 L 31.15625 18.460938 L 31.15625 12.429688 C 31.15625 12.007812 30.8125 11.664062 30.394531 11.664062 C 29.972656 11.664062 29.628906 12.007812 29.628906 12.429688 L 29.628906 18.460938 L 27.105469 18.460938 C 26.074219 18.460938 25.238281 19.296875 25.238281 20.324219 L 25.238281 22.832031 L 22.707031 22.832031 C 21.679688 22.832031 20.84375 23.667969 20.84375 24.699219 L 20.84375 32.789062 L 17.054688 32.789062 C 16.023438 32.789062 15.1875 33.625 15.1875 34.652344 L 15.1875 50.941406 C 14.65625 50.339844 14.066406 49.78125 13.417969 49.273438 C 13.140625 49.054688 12.75 49.054688 12.472656 49.273438 C 9.746094 51.421875 8 54.441406 7.566406 57.769531 C 7.226562 60.371094 8.800781 62.8125 11.3125 63.578125 C 11.597656 63.667969 11.890625 63.730469 12.183594 63.769531 L 12.183594 65.960938 L 8.285156 65.960938 C 7.863281 65.960938 7.519531 66.300781 7.519531 66.722656 C 7.519531 67.144531 7.863281 67.488281 8.285156 67.488281 L 68.152344 67.488281 C 68.574219 67.488281 68.914062 67.144531 68.914062 66.722656 C 68.914062 66.300781 68.574219 65.960938 68.152344 65.960938 Z M 54.386719 61.726562 C 54.414062 61.746094 54.445312 61.761719 54.476562 61.777344 C 54.929688 62.015625 55.410156 62.171875 55.894531 62.253906 L 55.894531 65.960938 L 54.386719 65.960938 Z M 57.421875 62.253906 C 57.90625 62.171875 58.382812 62.015625 58.839844 61.78125 C 59.570312 61.40625 60.164062 60.871094 60.601562 60.238281 C 60.832031 60.410156 61.078125 60.5625 61.339844 60.699219 C 61.855469 60.964844 62.398438 61.136719 62.949219 61.222656 L 62.949219 65.960938 L 57.421875 65.960938 Z M 63.714844 46.550781 C 65.78125 48.898438 67.101562 52.214844 67.371094 55.78125 C 67.488281 57.308594 66.742188 58.636719 65.382812 59.339844 C 65.09375 59.492188 64.789062 59.597656 64.476562 59.667969 L 64.476562 53.976562 C 64.476562 53.554688 64.136719 53.210938 63.714844 53.210938 C 63.292969 53.210938 62.949219 53.554688 62.949219 53.976562 L 62.949219 59.667969 C 62.640625 59.597656 62.335938 59.492188 62.042969 59.339844 C 61.757812 59.191406 61.5 59.011719 61.269531 58.8125 C 61.414062 58.285156 61.46875 57.726562 61.425781 57.152344 C 61.308594 55.644531 61.003906 54.183594 60.53125 52.816406 C 61.140625 50.375 62.230469 48.230469 63.710938 46.550781 Z M 56.660156 49.011719 C 58.488281 51.121094 59.660156 54.082031 59.898438 57.265625 C 59.9375 57.773438 59.871094 58.257812 59.707031 58.695312 C 59.703125 58.703125 59.699219 58.710938 59.695312 58.71875 C 59.417969 59.441406 58.882812 60.039062 58.136719 60.421875 C 57.90625 60.542969 57.667969 60.632812 57.421875 60.695312 L 57.421875 55.628906 C 57.421875 55.207031 57.078125 54.863281 56.65625 54.863281 C 56.234375 54.863281 55.894531 55.207031 55.894531 55.628906 L 55.894531 60.695312 C 55.648438 60.632812 55.40625 60.542969 55.175781 60.421875 C 53.972656 59.800781 53.3125 58.617188 53.414062 57.265625 C 53.65625 54.082031 54.828125 51.121094 56.660156 49.011719 Z M 52.519531 27.699219 C 52.703125 27.699219 52.855469 27.855469 52.855469 28.039062 L 52.855469 52.613281 C 52.34375 54.035156 52.011719 55.570312 51.890625 57.148438 C 51.800781 58.371094 52.152344 59.527344 52.855469 60.4375 L 52.855469 65.960938 L 47.671875 65.960938 L 47.671875 43.457031 C 47.671875 42.429688 46.835938 41.59375 45.808594 41.59375 L 39.941406 41.59375 L 39.941406 27.699219 Z M 41.726562 65.960938 L 36.628906 65.960938 L 36.628906 61.183594 C 36.628906 61 36.78125 60.847656 36.964844 60.847656 L 41.386719 60.847656 C 41.570312 60.847656 41.722656 61 41.722656 61.183594 L 41.722656 65.960938 Z M 41.386719 59.316406 L 36.964844 59.316406 C 35.9375 59.316406 35.101562 60.152344 35.101562 61.179688 L 35.101562 65.960938 L 32.210938 65.960938 L 32.210938 43.121094 L 45.808594 43.121094 C 45.988281 43.121094 46.144531 43.273438 46.144531 43.457031 L 46.144531 65.960938 L 43.253906 65.960938 L 43.253906 61.179688 C 43.253906 60.152344 42.417969 59.316406 41.390625 59.316406 Z M 26.765625 20.324219 C 26.765625 20.140625 26.917969 19.988281 27.101562 19.988281 L 33.679688 19.988281 C 33.859375 19.988281 34.015625 20.140625 34.015625 20.324219 L 34.015625 22.832031 L 26.765625 22.832031 Z M 22.367188 24.699219 C 22.367188 24.515625 22.523438 24.363281 22.703125 24.363281 L 38.074219 24.363281 C 38.257812 24.363281 38.410156 24.515625 38.410156 24.699219 L 38.410156 41.59375 L 32.207031 41.59375 L 32.207031 35.398438 L 34.710938 35.398438 C 35.132812 35.398438 35.476562 35.058594 35.476562 34.636719 C 35.476562 34.214844 35.132812 33.871094 34.710938 33.871094 L 32.035156 33.871094 C 31.738281 33.230469 31.09375 32.789062 30.34375 32.789062 L 22.367188 32.789062 Z M 16.710938 34.652344 C 16.710938 34.46875 16.867188 34.316406 17.050781 34.316406 L 30.34375 34.316406 C 30.523438 34.316406 30.679688 34.46875 30.679688 34.652344 L 30.679688 65.960938 L 27.769531 65.960938 L 27.769531 61.179688 C 27.769531 60.152344 26.933594 59.316406 25.90625 59.316406 L 21.484375 59.316406 C 20.457031 59.316406 19.621094 60.152344 19.621094 61.179688 L 19.621094 65.960938 L 16.710938 65.960938 L 16.710938 62.335938 C 17.914062 61.191406 18.546875 59.515625 18.320312 57.769531 C 18.101562 56.09375 17.550781 54.5 16.710938 53.050781 Z M 26.246094 65.960938 L 21.148438 65.960938 L 21.148438 61.183594 C 21.148438 61 21.304688 60.847656 21.484375 60.847656 L 25.90625 60.847656 C 26.089844 60.847656 26.246094 61 26.246094 61.183594 Z M 11.753906 62.117188 C 9.960938 61.574219 8.835938 59.824219 9.078125 57.96875 C 9.4375 55.234375 10.800781 52.734375 12.941406 50.867188 C 15.082031 52.734375 16.449219 55.234375 16.804688 57.96875 C 17.050781 59.828125 15.925781 61.574219 14.132812 62.117188 C 13.992188 62.160156 13.847656 62.195312 13.707031 62.222656 L 13.707031 57.953125 C 13.707031 57.53125 13.363281 57.191406 12.941406 57.191406 C 12.519531 57.191406 12.179688 57.53125 12.179688 57.953125 L 12.179688 62.222656 C 12.035156 62.195312 11.894531 62.160156 11.753906 62.117188 Z M 13.707031 63.773438 C 14 63.730469 14.289062 63.667969 14.578125 63.582031 C 14.785156 63.515625 14.988281 63.441406 15.183594 63.355469 L 15.183594 65.960938 L 13.707031 65.960938 Z M 43.269531 55.648438 C 43.269531 56.070312 42.925781 56.410156 42.503906 56.410156 L 35.847656 56.410156 C 35.425781 56.410156 35.082031 56.070312 35.082031 55.648438 C 35.082031 55.226562 35.425781 54.882812 35.847656 54.882812 L 42.503906 54.882812 C 42.925781 54.882812 43.269531 55.226562 43.269531 55.648438 Z M 35.082031 51.199219 C 35.082031 50.777344 35.425781 50.433594 35.847656 50.433594 L 42.503906 50.433594 C 42.925781 50.433594 43.269531 50.777344 43.269531 51.199219 C 43.269531 51.621094 42.925781 51.964844 42.503906 51.964844 L 35.847656 51.964844 C 35.425781 51.964844 35.082031 51.621094 35.082031 51.199219 Z M 35.082031 46.75 C 35.082031 46.328125 35.425781 45.984375 35.847656 45.984375 L 42.503906 45.984375 C 42.925781 45.984375 43.269531 46.328125 43.269531 46.75 C 43.269531 47.171875 42.925781 47.515625 42.503906 47.515625 L 35.847656 47.515625 C 35.425781 47.515625 35.082031 47.171875 35.082031 46.75 Z M 20.675781 55.6875 L 20.675781 54.34375 C 20.675781 53.921875 21.015625 53.578125 21.4375 53.578125 C 21.859375 53.578125 22.203125 53.921875 22.203125 54.34375 L 22.203125 55.6875 C 22.203125 56.109375 21.859375 56.453125 21.4375 56.453125 C 21.015625 56.453125 20.675781 56.109375 20.675781 55.6875 Z M 25.191406 55.6875 L 25.191406 54.34375 C 25.191406 53.921875 25.535156 53.578125 25.953125 53.578125 C 26.375 53.578125 26.71875 53.921875 26.71875 54.34375 L 26.71875 55.6875 C 26.71875 56.109375 26.375 56.453125 25.953125 56.453125 C 25.535156 56.453125 25.191406 56.109375 25.191406 55.6875 Z M 20.675781 50.242188 L 20.675781 48.894531 C 20.675781 48.472656 21.015625 48.132812 21.4375 48.132812 C 21.859375 48.132812 22.203125 48.472656 22.203125 48.894531 L 22.203125 50.242188 C 22.203125 50.664062 21.859375 51.003906 21.4375 51.003906 C 21.015625 51.003906 20.675781 50.664062 20.675781 50.242188 Z M 25.191406 50.242188 L 25.191406 48.894531 C 25.191406 48.472656 25.535156 48.132812 25.953125 48.132812 C 26.375 48.132812 26.71875 48.472656 26.71875 48.894531 L 26.71875 50.242188 C 26.71875 50.664062 26.375 51.003906 25.953125 51.003906 C 25.535156 51.003906 25.191406 50.664062 25.191406 50.242188 Z M 20.675781 44.792969 L 20.675781 43.449219 C 20.675781 43.027344 21.015625 42.683594 21.4375 42.683594 C 21.859375 42.683594 22.203125 43.027344 22.203125 43.449219 L 22.203125 44.792969 C 22.203125 45.214844 21.859375 45.558594 21.4375 45.558594 C 21.015625 45.558594 20.675781 45.214844 20.675781 44.792969 Z M 25.191406 44.792969 L 25.191406 43.449219 C 25.191406 43.027344 25.535156 42.683594 25.953125 42.683594 C 26.375 42.683594 26.71875 43.027344 26.71875 43.449219 L 26.71875 44.792969 C 26.71875 45.214844 26.375 45.558594 25.953125 45.558594 C 25.535156 45.558594 25.191406 45.214844 25.191406 44.792969 Z M 20.675781 39.347656 L 20.675781 38 C 20.675781 37.582031 21.015625 37.238281 21.4375 37.238281 C 21.859375 37.238281 22.203125 37.582031 22.203125 38 L 22.203125 39.347656 C 22.203125 39.769531 21.859375 40.109375 21.4375 40.109375 C 21.015625 40.109375 20.675781 39.769531 20.675781 39.347656 Z M 25.191406 39.347656 L 25.191406 38 C 25.191406 37.582031 25.535156 37.238281 25.953125 37.238281 C 26.375 37.238281 26.71875 37.582031 26.71875 38 L 26.71875 39.347656 C 26.71875 39.769531 26.375 40.109375 25.953125 40.109375 C 25.535156 40.109375 25.191406 39.769531 25.191406 39.347656 Z M 42.785156 37.953125 L 42.785156 36.605469 C 42.785156 36.183594 43.128906 35.84375 43.550781 35.84375 C 43.972656 35.84375 44.3125 36.183594 44.3125 36.605469 L 44.3125 37.953125 C 44.3125 38.375 43.972656 38.714844 43.550781 38.714844 C 43.128906 38.714844 42.785156 38.375 42.785156 37.953125 Z M 47.300781 37.953125 L 47.300781 36.605469 C 47.300781 36.183594 47.644531 35.84375 48.066406 35.84375 C 48.488281 35.84375 48.832031 36.183594 48.832031 36.605469 L 48.832031 37.953125 C 48.832031 38.375 48.488281 38.714844 48.066406 38.714844 C 47.644531 38.714844 47.300781 38.375 47.300781 37.953125 Z M 42.785156 32.503906 L 42.785156 31.160156 C 42.785156 30.738281 43.128906 30.394531 43.550781 30.394531 C 43.972656 30.394531 44.3125 30.738281 44.3125 31.160156 L 44.3125 32.503906 C 44.3125 32.925781 43.972656 33.269531 43.550781 33.269531 C 43.128906 33.269531 42.785156 32.925781 42.785156 32.503906 Z M 47.300781 32.503906 L 47.300781 31.160156 C 47.300781 30.738281 47.644531 30.394531 48.066406 30.394531 C 48.488281 30.394531 48.832031 30.738281 48.832031 31.160156 L 48.832031 32.503906 C 48.832031 32.925781 48.488281 33.269531 48.066406 33.269531 C 47.644531 33.269531 47.300781 32.925781 47.300781 32.503906 Z M 34.710938 29.90625 L 26.070312 29.90625 C 25.648438 29.90625 25.304688 29.566406 25.304688 29.144531 C 25.304688 28.722656 25.648438 28.378906 26.070312 28.378906 L 34.710938 28.378906 C 35.132812 28.378906 35.476562 28.722656 35.476562 29.144531 C 35.476562 29.566406 35.132812 29.90625 34.710938 29.90625 Z M 34.710938 29.90625 " fill-opacity="1" fill-rule="nonzero"/></g></svg>