<svg xmlns="http://www.w3.org/2000/svg" xmlns:xlink="http://www.w3.org/1999/xlink" width="100" zoomAndPan="magnify" viewBox="0 0 75 74.999997" height="100" preserveAspectRatio="xMidYMid meet" version="1.0"><defs><clipPath id="67491e66cb"><path d="M 11.386719 13.160156 L 63.886719 13.160156 L 63.886719 65.660156 L 11.386719 65.660156 Z M 11.386719 13.160156 " clip-rule="nonzero"/></clipPath></defs><g clip-path="url(#67491e66cb)"><path fill="#1baa5a" d="M 52.882812 24.078125 C 52.882812 23.679688 53.207031 23.355469 53.609375 23.355469 L 57.304688 23.355469 C 58.621094 23.355469 59.691406 24.425781 59.691406 25.738281 L 59.691406 29.828125 C 59.691406 30.230469 59.367188 30.554688 58.964844 30.554688 C 58.5625 30.554688 58.238281 30.230469 58.238281 29.828125 L 58.238281 25.738281 C 58.238281 25.222656 57.820312 24.804688 57.304688 24.804688 L 53.609375 24.804688 C 53.207031 24.804688 52.882812 24.480469 52.882812 24.078125 Z M 53.609375 27.640625 L 55.402344 27.640625 L 55.402344 29.828125 C 55.402344 30.230469 55.726562 30.554688 56.128906 30.554688 C 56.53125 30.554688 56.855469 30.230469 56.855469 29.828125 L 56.855469 26.914062 C 56.855469 26.515625 56.53125 26.191406 56.128906 26.191406 L 53.609375 26.191406 C 53.207031 26.191406 52.882812 26.515625 52.882812 26.914062 C 52.882812 27.316406 53.207031 27.640625 53.609375 27.640625 Z M 17.40625 27.640625 C 17.804688 27.640625 18.128906 27.316406 18.128906 26.914062 C 18.128906 26.515625 17.804688 26.191406 17.40625 26.191406 L 14.949219 26.191406 C 14.546875 26.191406 14.222656 26.515625 14.222656 26.914062 L 14.222656 52.484375 C 14.222656 52.882812 14.546875 53.207031 14.949219 53.207031 L 45.554688 53.207031 C 45.957031 53.207031 46.28125 52.882812 46.28125 52.484375 C 46.28125 52.082031 45.957031 51.757812 45.554688 51.757812 L 15.675781 51.757812 L 15.675781 27.640625 Z M 46.378906 63.996094 L 46.378906 64.65625 C 46.378906 65.054688 46.054688 65.378906 45.65625 65.378906 L 25.425781 65.378906 C 25.023438 65.378906 24.699219 65.054688 24.699219 64.65625 L 24.699219 63.996094 C 24.699219 62.097656 26.242188 60.550781 28.140625 60.550781 L 31.179688 60.550781 L 31.179688 57.589844 L 13.773438 57.589844 C 12.457031 57.589844 11.386719 56.519531 11.386719 55.207031 L 11.386719 25.738281 C 11.386719 24.425781 12.457031 23.355469 13.773438 23.355469 L 17.40625 23.355469 C 17.804688 23.355469 18.128906 23.679688 18.128906 24.078125 C 18.128906 24.480469 17.804688 24.804688 17.40625 24.804688 L 13.773438 24.804688 C 13.257812 24.804688 12.839844 25.222656 12.839844 25.738281 L 12.839844 55.207031 C 12.839844 55.71875 13.257812 56.140625 13.773438 56.140625 L 45.554688 56.140625 C 45.957031 56.140625 46.28125 56.464844 46.28125 56.863281 C 46.28125 57.265625 45.957031 57.589844 45.554688 57.589844 L 39.898438 57.589844 L 39.898438 60.550781 L 42.9375 60.550781 C 44.835938 60.550781 46.378906 62.097656 46.378906 63.996094 Z M 32.632812 60.550781 L 38.445312 60.550781 L 38.445312 57.589844 L 32.632812 57.589844 Z M 44.929688 63.929688 C 44.894531 62.859375 44.011719 62.003906 42.9375 62.003906 L 28.140625 62.003906 C 27.066406 62.003906 26.183594 62.859375 26.148438 63.929688 Z M 45.789062 38.320312 L 37.792969 38.320312 C 37.390625 38.320312 37.066406 38.644531 37.066406 39.046875 C 37.066406 39.449219 37.390625 39.773438 37.792969 39.773438 L 45.789062 39.773438 C 46.1875 39.773438 46.511719 39.449219 46.511719 39.046875 C 46.511719 38.644531 46.1875 38.320312 45.789062 38.320312 Z M 18.835938 29.953125 L 18.835938 15.507812 C 18.835938 14.214844 19.890625 13.160156 21.183594 13.160156 L 49.808594 13.160156 C 51.105469 13.160156 52.15625 14.214844 52.15625 15.507812 L 52.15625 29.59375 C 52.15625 29.996094 51.832031 30.320312 51.433594 30.320312 C 51.03125 30.320312 50.707031 29.996094 50.707031 29.59375 L 50.707031 19.242188 L 20.285156 19.242188 L 20.285156 29.953125 C 20.285156 30.351562 19.960938 30.675781 19.5625 30.675781 C 19.160156 30.675781 18.835938 30.351562 18.835938 29.953125 Z M 20.285156 17.792969 L 50.707031 17.792969 L 50.707031 15.507812 C 50.707031 15.011719 50.304688 14.613281 49.808594 14.613281 L 21.183594 14.613281 C 20.6875 14.613281 20.285156 15.015625 20.285156 15.507812 Z M 25.558594 15.367188 C 25.097656 15.367188 24.722656 15.742188 24.722656 16.203125 C 24.722656 16.664062 25.097656 17.035156 25.558594 17.035156 C 26.019531 17.035156 26.390625 16.664062 26.390625 16.203125 C 26.390625 15.742188 26.019531 15.367188 25.558594 15.367188 Z M 28.644531 15.367188 C 28.183594 15.367188 27.808594 15.742188 27.808594 16.203125 C 27.808594 16.664062 28.183594 17.035156 28.644531 17.035156 C 29.105469 17.035156 29.476562 16.664062 29.476562 16.203125 C 29.476562 15.742188 29.101562 15.367188 28.644531 15.367188 Z M 22.472656 15.367188 C 22.011719 15.367188 21.640625 15.742188 21.640625 16.203125 C 21.640625 16.664062 22.011719 17.035156 22.472656 17.035156 C 22.933594 17.035156 23.308594 16.664062 23.308594 16.203125 C 23.308594 15.742188 22.933594 15.367188 22.472656 15.367188 Z M 32.972656 21.179688 C 33.6875 21.179688 34.265625 21.761719 34.265625 22.472656 L 34.265625 25.855469 C 34.265625 26.566406 33.683594 27.144531 32.972656 27.144531 L 23.679688 27.144531 C 22.96875 27.144531 22.390625 26.566406 22.390625 25.855469 L 22.390625 22.472656 C 22.390625 21.757812 22.96875 21.179688 23.679688 21.179688 Z M 32.8125 22.632812 L 23.84375 22.632812 L 23.84375 25.695312 L 32.8125 25.695312 Z M 18.390625 33.476562 L 20.0625 31.808594 C 20.453125 31.414062 21.074219 31.355469 21.535156 31.664062 L 22.289062 32.171875 L 23.785156 31.550781 L 23.960938 30.65625 C 24.070312 30.113281 24.550781 29.71875 25.105469 29.71875 L 27.464844 29.71875 C 28.019531 29.71875 28.5 30.113281 28.609375 30.65625 L 28.785156 31.550781 L 30.28125 32.171875 L 31.035156 31.664062 C 31.496094 31.355469 32.117188 31.414062 32.507812 31.808594 L 34.179688 33.476562 C 34.570312 33.871094 34.628906 34.488281 34.320312 34.949219 L 33.816406 35.703125 L 34.4375 37.203125 L 35.328125 37.378906 C 35.871094 37.484375 36.269531 37.964844 36.269531 38.519531 L 36.269531 40.878906 C 36.269531 41.433594 35.871094 41.914062 35.328125 42.023438 L 34.4375 42.199219 L 33.816406 43.695312 L 34.320312 44.453125 C 34.628906 44.914062 34.570312 45.53125 34.179688 45.925781 L 32.507812 47.59375 C 32.117188 47.984375 31.496094 48.046875 31.035156 47.738281 L 30.28125 47.230469 L 28.785156 47.851562 L 28.609375 48.742188 C 28.5 49.289062 28.019531 49.683594 27.464844 49.683594 L 25.105469 49.683594 C 24.550781 49.683594 24.070312 49.289062 23.960938 48.746094 L 23.785156 47.851562 L 22.289062 47.230469 L 21.535156 47.738281 C 21.074219 48.046875 20.453125 47.984375 20.0625 47.59375 L 18.390625 45.921875 C 18 45.53125 17.9375 44.910156 18.246094 44.449219 L 18.753906 43.695312 L 18.132812 42.199219 L 17.242188 42.019531 C 16.699219 41.914062 16.304688 41.433594 16.304688 40.878906 L 16.304688 38.519531 C 16.304688 37.964844 16.699219 37.484375 17.242188 37.375 L 18.132812 37.199219 L 18.753906 35.703125 L 18.246094 34.945312 C 17.9375 34.488281 18 33.867188 18.390625 33.476562 Z M 18.796875 38.550781 L 17.753906 38.753906 L 17.753906 40.644531 L 18.796875 40.847656 C 19.035156 40.894531 19.234375 41.058594 19.324219 41.285156 L 20.242188 43.5 C 20.335938 43.722656 20.3125 43.976562 20.175781 44.179688 L 19.582031 45.0625 L 20.921875 46.398438 L 21.804688 45.808594 C 22.003906 45.671875 22.261719 45.644531 22.484375 45.738281 L 24.699219 46.65625 C 24.921875 46.75 25.085938 46.949219 25.132812 47.1875 L 25.339844 48.230469 L 27.230469 48.230469 L 27.433594 47.1875 C 27.480469 46.949219 27.644531 46.75 27.867188 46.65625 L 30.082031 45.738281 C 30.308594 45.644531 30.5625 45.671875 30.765625 45.804688 L 31.648438 46.398438 L 32.984375 45.0625 L 32.394531 44.179688 C 32.257812 43.976562 32.230469 43.722656 32.324219 43.496094 L 33.242188 41.28125 C 33.335938 41.058594 33.535156 40.894531 33.773438 40.847656 L 34.816406 40.640625 L 34.816406 38.753906 L 33.773438 38.546875 C 33.535156 38.5 33.335938 38.339844 33.242188 38.113281 L 32.324219 35.898438 C 32.230469 35.675781 32.257812 35.417969 32.390625 35.214844 L 32.984375 34.332031 L 31.648438 32.996094 L 30.765625 33.589844 C 30.5625 33.722656 30.304688 33.75 30.082031 33.65625 L 27.867188 32.738281 C 27.644531 32.644531 27.480469 32.445312 27.433594 32.207031 L 27.226562 31.167969 L 25.339844 31.167969 L 25.132812 32.207031 C 25.085938 32.445312 24.921875 32.644531 24.699219 32.738281 L 22.484375 33.65625 C 22.261719 33.75 22.003906 33.722656 21.800781 33.589844 L 20.921875 33 L 19.582031 34.335938 L 20.175781 35.21875 C 20.3125 35.421875 20.335938 35.675781 20.242188 35.902344 L 19.324219 38.117188 C 19.234375 38.339844 19.035156 38.5 18.796875 38.550781 Z M 21.300781 39.699219 C 21.300781 36.949219 23.535156 34.714844 26.285156 34.714844 C 29.03125 34.714844 31.269531 36.949219 31.269531 39.699219 C 31.269531 42.449219 29.03125 44.683594 26.285156 44.683594 C 23.535156 44.683594 21.300781 42.449219 21.300781 39.699219 Z M 22.75 39.699219 C 22.75 41.648438 24.335938 43.234375 26.285156 43.234375 C 28.234375 43.234375 29.816406 41.648438 29.816406 39.699219 C 29.816406 37.75 28.234375 36.164062 26.285156 36.164062 C 24.335938 36.164062 22.75 37.75 22.75 39.699219 Z M 63.605469 33.640625 L 63.605469 58.074219 C 63.605469 59.484375 62.460938 60.628906 61.050781 60.628906 L 49.871094 60.628906 C 48.464844 60.628906 47.316406 59.484375 47.316406 58.074219 L 47.316406 33.640625 C 47.316406 32.230469 48.464844 31.085938 49.871094 31.085938 L 61.050781 31.085938 C 62.460938 31.085938 63.605469 32.230469 63.605469 33.640625 Z M 62.15625 33.640625 C 62.15625 33.03125 61.660156 32.535156 61.050781 32.535156 L 49.871094 32.535156 C 49.261719 32.535156 48.765625 33.03125 48.765625 33.640625 L 48.765625 58.074219 C 48.765625 58.683594 49.261719 59.179688 49.871094 59.179688 L 61.050781 59.179688 C 61.660156 59.179688 62.15625 58.683594 62.15625 58.074219 Z M 56.105469 55.714844 L 54.816406 55.714844 C 54.414062 55.714844 54.089844 56.039062 54.089844 56.4375 C 54.089844 56.839844 54.414062 57.164062 54.816406 57.164062 L 56.105469 57.164062 C 56.507812 57.164062 56.832031 56.839844 56.832031 56.4375 C 56.832031 56.039062 56.507812 55.714844 56.105469 55.714844 Z M 60.886719 45.859375 C 60.886719 48.851562 58.453125 51.285156 55.460938 51.285156 C 52.46875 51.285156 50.035156 48.851562 50.035156 45.859375 C 50.035156 42.867188 52.46875 40.433594 55.460938 40.433594 C 58.453125 40.433594 60.886719 42.867188 60.886719 45.859375 Z M 59.4375 45.859375 C 59.4375 43.664062 57.65625 41.882812 55.460938 41.882812 C 53.269531 41.882812 51.488281 43.664062 51.488281 45.859375 C 51.488281 48.050781 53.269531 49.832031 55.460938 49.832031 C 57.65625 49.832031 59.4375 48.050781 59.4375 45.859375 Z M 57.1875 43.773438 L 54.632812 46.328125 L 53.800781 45.234375 C 53.558594 44.917969 53.105469 44.855469 52.785156 45.097656 C 52.464844 45.339844 52.40625 45.792969 52.648438 46.113281 L 53.980469 47.867188 C 54.109375 48.035156 54.300781 48.136719 54.511719 48.152344 C 54.527344 48.152344 54.542969 48.152344 54.558594 48.152344 C 54.75 48.152344 54.933594 48.078125 55.070312 47.941406 L 58.210938 44.800781 C 58.492188 44.519531 58.492188 44.058594 58.210938 43.777344 C 57.929688 43.492188 57.46875 43.492188 57.1875 43.773438 Z M 36.488281 32.5 C 36.085938 32.5 35.761719 32.824219 35.761719 33.226562 C 35.761719 33.625 36.085938 33.949219 36.488281 33.949219 L 43.925781 33.949219 C 44.324219 33.949219 44.648438 33.625 44.648438 33.226562 C 44.648438 32.824219 44.324219 32.5 43.925781 32.5 Z M 47.695312 21.625 L 36.488281 21.625 C 36.085938 21.625 35.761719 21.949219 35.761719 22.351562 C 35.761719 22.75 36.085938 23.074219 36.488281 23.074219 L 47.691406 23.074219 C 48.09375 23.074219 48.417969 22.75 48.417969 22.351562 C 48.417969 21.949219 48.09375 21.625 47.695312 21.625 Z M 46.398438 29.601562 C 46.398438 29.199219 46.074219 28.875 45.675781 28.875 L 36.488281 28.875 C 36.085938 28.875 35.761719 29.199219 35.761719 29.601562 C 35.761719 30 36.085938 30.324219 36.488281 30.324219 L 45.675781 30.324219 C 46.074219 30.324219 46.398438 30 46.398438 29.601562 Z M 48.417969 25.976562 C 48.417969 25.574219 48.09375 25.25 47.695312 25.25 L 36.488281 25.25 C 36.085938 25.25 35.761719 25.574219 35.761719 25.976562 C 35.761719 26.375 36.085938 26.699219 36.488281 26.699219 L 47.691406 26.699219 C 48.09375 26.699219 48.417969 26.375 48.417969 25.976562 Z M 48.417969 25.976562 " fill-opacity="1" fill-rule="nonzero"/></g></svg>