<svg xmlns="http://www.w3.org/2000/svg" xmlns:xlink="http://www.w3.org/1999/xlink" width="100" zoomAndPan="magnify" viewBox="0 0 75 74.999997" height="100" preserveAspectRatio="xMidYMid meet" version="1.0"><defs><clipPath id="892b02d262"><path d="M 7.5 18.382812 L 69 18.382812 L 69 61.882812 L 7.5 61.882812 Z M 7.5 18.382812 " clip-rule="nonzero"/></clipPath></defs><g clip-path="url(#892b02d262)"><path fill="#1baa5a" d="M 37.386719 36.476562 L 39.765625 33.550781 C 40.207031 33.007812 40.832031 32.691406 41.480469 32.625 C 42.128906 32.558594 42.808594 32.734375 43.351562 33.179688 C 43.378906 33.203125 43.40625 33.222656 43.429688 33.246094 L 43.433594 33.246094 C 43.925781 33.683594 44.210938 34.28125 44.277344 34.894531 C 44.34375 35.542969 44.164062 36.222656 43.722656 36.765625 L 39.394531 42.09375 C 39.328125 42.171875 39.261719 42.246094 39.191406 42.316406 L 39.1875 42.320312 C 39.121094 42.378906 39.050781 42.441406 38.96875 42.503906 L 38.96875 42.507812 C 38.425781 42.9375 37.753906 43.113281 37.109375 43.042969 C 36.464844 42.972656 35.84375 42.660156 35.402344 42.117188 L 32.917969 39.058594 C 32.472656 38.515625 32.296875 37.839844 32.363281 37.191406 C 32.425781 36.574219 32.710938 35.980469 33.207031 35.542969 L 33.210938 35.539062 C 33.234375 35.519531 33.257812 35.496094 33.285156 35.476562 L 33.289062 35.472656 C 33.832031 35.03125 34.507812 34.851562 35.15625 34.917969 C 35.804688 34.984375 36.429688 35.296875 36.871094 35.839844 L 36.875 35.84375 Z M 54.839844 49.453125 C 56.730469 48.140625 58.628906 46.605469 60.523438 44.84375 C 62.664062 42.855469 64.808594 40.582031 66.957031 38.019531 C 67.003906 37.964844 67.027344 37.898438 67.027344 37.832031 C 67.027344 37.769531 67.003906 37.703125 66.957031 37.648438 C 64.082031 34.21875 61.214844 31.304688 58.347656 28.902344 C 51.644531 23.277344 44.964844 20.46875 38.320312 20.46875 C 31.671875 20.46875 24.996094 23.277344 18.292969 28.902344 C 15.425781 31.304688 12.554688 34.21875 9.679688 37.648438 C 9.636719 37.703125 9.613281 37.769531 9.613281 37.832031 C 9.613281 37.898438 9.636719 37.964844 9.679688 38.019531 C 16.472656 46.117188 23.234375 51.355469 29.96875 53.726562 C 36.160156 55.910156 42.359375 55.660156 48.566406 52.980469 L 48.183594 52.597656 C 47.90625 52.320312 47.765625 51.957031 47.765625 51.589844 C 47.765625 51.472656 47.78125 51.351562 47.8125 51.234375 L 46.613281 50.035156 C 44.117188 51.734375 41.21875 52.582031 38.320312 52.582031 C 34.542969 52.582031 30.769531 51.144531 27.890625 48.261719 C 25.011719 45.382812 23.570312 41.609375 23.570312 37.832031 C 23.570312 34.058594 25.011719 30.285156 27.890625 27.402344 C 30.769531 24.523438 34.542969 23.085938 38.320312 23.085938 C 42.09375 23.085938 45.871094 24.523438 48.75 27.402344 C 51.628906 30.285156 53.070312 34.058594 53.070312 37.832031 L 53.066406 37.832031 C 53.066406 40.734375 52.214844 43.632812 50.519531 46.125 L 51.722656 47.324219 C 51.835938 47.296875 51.957031 47.28125 52.078125 47.28125 C 52.441406 47.28125 52.804688 47.417969 53.082031 47.699219 Z M 50.144531 54.558594 L 56.585938 61 C 57.257812 61.671875 58.148438 62.011719 59.035156 62.011719 C 59.917969 62.011719 60.804688 61.671875 61.480469 61 L 61.484375 61 L 61.484375 60.996094 C 62.160156 60.320312 62.496094 59.433594 62.496094 58.546875 C 62.496094 57.660156 62.160156 56.773438 61.484375 56.097656 L 56.332031 50.945312 C 58.203125 49.625 60.074219 48.097656 61.941406 46.367188 C 64.148438 44.316406 66.351562 41.980469 68.554688 39.355469 C 68.925781 38.910156 69.113281 38.371094 69.113281 37.832031 C 69.113281 37.292969 68.925781 36.753906 68.554688 36.3125 C 65.601562 32.789062 62.644531 29.789062 59.683594 27.304688 C 52.589844 21.359375 45.46875 18.382812 38.320312 18.382812 C 31.167969 18.382812 24.046875 21.359375 16.957031 27.304688 C 13.996094 29.789062 11.039062 32.789062 8.085938 36.3125 C 7.714844 36.753906 7.527344 37.292969 7.527344 37.832031 C 7.527344 38.371094 7.714844 38.910156 8.085938 39.355469 C 15.121094 47.746094 22.183594 53.191406 29.277344 55.691406 C 36.238281 58.144531 43.195312 57.765625 50.144531 54.558594 Z M 49.21875 47.769531 L 50.105469 48.660156 L 49.144531 49.621094 L 48.257812 48.734375 C 48.421875 48.582031 48.585938 48.425781 48.75 48.261719 C 48.910156 48.101562 49.066406 47.9375 49.21875 47.769531 Z M 38.320312 25.167969 C 35.078125 25.167969 31.835938 26.40625 29.363281 28.878906 C 26.890625 31.351562 25.652344 34.59375 25.652344 37.832031 C 25.652344 41.074219 26.890625 44.316406 29.363281 46.789062 C 31.835938 49.261719 35.078125 50.5 38.320312 50.5 C 41.558594 50.5 44.800781 49.261719 47.273438 46.789062 L 47.277344 46.789062 C 49.75 44.3125 50.988281 41.070312 50.988281 37.832031 L 50.984375 37.832031 C 50.984375 34.59375 49.75 31.351562 47.277344 28.878906 L 47.273438 28.878906 C 44.800781 26.40625 41.5625 25.167969 38.320312 25.167969 Z M 30.835938 30.351562 C 28.769531 32.417969 27.738281 35.125 27.738281 37.832031 C 27.738281 40.542969 28.769531 43.25 30.835938 45.316406 C 32.902344 47.382812 35.613281 48.414062 38.320312 48.414062 C 41.027344 48.414062 43.734375 47.382812 45.800781 45.316406 C 47.867188 43.25 48.902344 40.542969 48.902344 37.832031 C 48.902344 35.125 47.867188 32.417969 45.800781 30.351562 C 43.734375 28.285156 41.027344 27.253906 38.320312 27.253906 C 35.609375 27.253906 32.902344 28.285156 30.835938 30.351562 Z M 38.320312 29.335938 C 36.144531 29.335938 33.96875 30.167969 32.3125 31.824219 C 30.652344 33.484375 29.824219 35.660156 29.824219 37.832031 C 29.824219 40.007812 30.652344 42.183594 32.3125 43.84375 C 33.96875 45.5 36.144531 46.332031 38.320312 46.332031 C 40.496094 46.332031 42.667969 45.5 44.328125 43.84375 C 45.988281 42.183594 46.816406 40.007812 46.816406 37.832031 C 46.816406 35.660156 45.988281 33.484375 44.328125 31.824219 C 42.667969 30.167969 40.492188 29.335938 38.320312 29.335938 Z M 52.390625 49.953125 L 60.011719 57.570312 C 60.277344 57.839844 60.414062 58.195312 60.414062 58.546875 C 60.414062 58.90625 60.28125 59.261719 60.011719 59.527344 L 60.011719 59.523438 L 60.011719 59.527344 C 59.746094 59.792969 59.390625 59.925781 59.035156 59.925781 C 58.679688 59.925781 58.324219 59.792969 58.058594 59.523438 L 50.4375 51.90625 Z M 41.375 34.859375 L 38.367188 38.5625 C 38.25 38.707031 38.101562 38.824219 37.933594 38.90625 L 37.929688 38.910156 C 37.757812 38.988281 37.574219 39.03125 37.386719 39.03125 C 37.199219 39.03125 37.015625 38.988281 36.847656 38.910156 C 36.675781 38.828125 36.527344 38.710938 36.40625 38.5625 L 35.265625 37.15625 L 35.261719 37.152344 C 35.183594 37.054688 35.066406 37 34.945312 36.984375 C 34.824219 36.972656 34.699219 37.003906 34.601562 37.082031 L 34.597656 37.085938 C 34.5 37.164062 34.441406 37.28125 34.429688 37.402344 C 34.417969 37.523438 34.449219 37.648438 34.527344 37.746094 L 34.527344 37.75 L 37.015625 40.808594 C 37.09375 40.90625 37.207031 40.960938 37.328125 40.972656 C 37.449219 40.988281 37.578125 40.957031 37.675781 40.878906 L 37.6875 40.871094 L 37.695312 40.863281 L 37.707031 40.855469 C 37.714844 40.851562 37.726562 40.839844 37.746094 40.820312 C 37.761719 40.808594 37.773438 40.792969 37.78125 40.78125 L 42.109375 35.453125 C 42.1875 35.355469 42.222656 35.230469 42.207031 35.109375 C 42.195312 34.988281 42.140625 34.871094 42.039062 34.789062 C 41.941406 34.710938 41.816406 34.679688 41.695312 34.691406 C 41.574219 34.703125 41.457031 34.761719 41.375 34.859375 Z M 41.375 34.859375 " fill-opacity="1" fill-rule="evenodd"/></g></svg>