<svg xmlns="http://www.w3.org/2000/svg" xmlns:xlink="http://www.w3.org/1999/xlink" width="100" zoomAndPan="magnify" viewBox="0 0 75 74.999997" height="100" preserveAspectRatio="xMidYMid meet" version="1.0"><defs><clipPath id="c9306bc2d6"><path d="M 9.585938 9.585938 L 65.085938 9.585938 L 65.085938 65.085938 L 9.585938 65.085938 Z M 9.585938 9.585938 " clip-rule="nonzero"/></clipPath></defs><g clip-path="url(#c9306bc2d6)"><path fill="#1baa5a" d="M 64.421875 46.167969 C 63.785156 45.53125 62.933594 45.183594 62.03125 45.183594 C 61.125 45.183594 60.34375 45.507812 59.714844 46.09375 C 59.566406 45.832031 59.382812 45.585938 59.167969 45.371094 C 57.847656 44.050781 55.703125 44.050781 54.386719 45.371094 L 54.101562 45.65625 C 53.953125 45.390625 53.769531 45.148438 53.554688 44.933594 C 52.917969 44.296875 52.070312 43.949219 51.164062 43.949219 C 50.257812 43.949219 49.410156 44.296875 48.773438 44.933594 L 41.699219 52.007812 C 38.191406 51.238281 35.464844 50.449219 32.058594 49.210938 C 28.835938 48.039062 25.757812 47.722656 22.4375 48.21875 L 22.707031 47.21875 C 22.957031 46.28125 22.402344 45.320312 21.464844 45.070312 L 16.230469 43.667969 C 15.78125 43.546875 15.308594 43.609375 14.902344 43.84375 C 14.496094 44.078125 14.203125 44.457031 14.082031 44.90625 L 9.648438 61.457031 C 9.53125 61.90625 9.59375 62.378906 9.828125 62.785156 C 10.0625 63.191406 10.4375 63.484375 10.890625 63.605469 L 16.125 65.007812 C 16.277344 65.046875 16.429688 65.066406 16.582031 65.066406 C 16.882812 65.066406 17.183594 64.984375 17.457031 64.828125 C 17.863281 64.59375 18.152344 64.21875 18.273438 63.765625 L 18.605469 62.53125 C 23.902344 64.230469 30.183594 65.414062 36.347656 65.414062 C 44.207031 65.414062 51.875 63.496094 57.078125 58.292969 L 64.421875 50.949219 C 65.058594 50.3125 65.40625 49.464844 65.40625 48.558594 C 65.40625 47.652344 65.058594 46.804688 64.421875 46.167969 Z M 58.183594 46.355469 C 58.40625 46.574219 58.570312 46.847656 58.667969 47.140625 L 50.65625 55.152344 C 50.398438 54.164062 49.703125 53.351562 48.792969 52.929688 L 55.371094 46.351562 C 56.148438 45.578125 57.410156 45.578125 58.1875 46.351562 Z M 49.757812 45.917969 C 50.132812 45.542969 50.628906 45.335938 51.164062 45.335938 C 51.699219 45.335938 52.195312 45.542969 52.570312 45.917969 C 52.792969 46.136719 52.957031 46.40625 53.050781 46.703125 L 47.140625 52.617188 C 45.804688 52.605469 44.570312 52.511719 43.351562 52.320312 L 49.757812 45.914062 Z M 16.929688 63.40625 C 16.898438 63.53125 16.808594 63.597656 16.761719 63.625 C 16.710938 63.652344 16.609375 63.695312 16.484375 63.664062 L 11.25 62.261719 C 11.125 62.226562 11.058594 62.136719 11.03125 62.089844 C 11 62.042969 10.957031 61.941406 10.992188 61.8125 L 15.425781 45.265625 C 15.46875 45.105469 15.621094 44.996094 15.78125 44.996094 C 15.8125 44.996094 15.84375 45 15.871094 45.007812 L 21.109375 46.410156 C 21.296875 46.460938 21.417969 46.667969 21.363281 46.859375 Z M 63.4375 49.964844 L 56.09375 57.308594 C 52.085938 61.316406 45.988281 63.621094 38.457031 63.972656 C 32.332031 64.261719 25.421875 63.269531 18.964844 61.1875 L 22.042969 49.691406 C 25.359375 49.097656 28.394531 49.359375 31.585938 50.515625 C 35.132812 51.804688 37.949219 52.617188 41.636719 53.417969 C 43.503906 53.820312 45.328125 54.007812 47.382812 54.007812 C 48.480469 54.007812 49.375 54.902344 49.375 56 C 49.375 57.097656 48.480469 57.992188 47.382812 57.992188 C 43.269531 57.992188 36.292969 56.457031 32.800781 55.082031 C 32.445312 54.941406 32.039062 55.117188 31.902344 55.472656 C 31.761719 55.832031 31.933594 56.234375 32.292969 56.375 C 35.898438 57.792969 43.121094 59.382812 47.382812 59.382812 C 48.824219 59.382812 50.054688 58.476562 50.542969 57.207031 C 50.585938 57.179688 50.625 57.148438 50.664062 57.109375 L 60.625 47.152344 C 60.996094 46.777344 61.496094 46.570312 62.03125 46.570312 C 62.566406 46.570312 63.0625 46.777344 63.4375 47.152344 C 63.8125 47.527344 64.019531 48.023438 64.019531 48.558594 C 64.019531 49.09375 63.8125 49.589844 63.4375 49.964844 Z M 37.007812 49.160156 C 37.144531 49.296875 37.320312 49.363281 37.5 49.363281 C 37.675781 49.363281 37.855469 49.296875 37.988281 49.160156 L 57.429688 29.71875 C 62.03125 25.117188 62.03125 17.636719 57.429688 13.035156 C 52.832031 8.4375 45.347656 8.4375 40.75 13.035156 L 37.5 16.285156 L 34.246094 13.035156 C 32.027344 10.816406 29.066406 9.59375 25.90625 9.59375 C 22.746094 9.59375 19.785156 10.816406 17.566406 13.035156 C 15.347656 15.253906 14.125 18.21875 14.125 21.378906 C 14.125 24.539062 15.34375 27.5 17.566406 29.71875 Z M 31.855469 23.769531 C 30.527344 23.769531 29.441406 22.6875 29.441406 21.355469 C 29.441406 20.027344 30.527344 18.945312 31.855469 18.945312 C 33.1875 18.945312 34.269531 20.027344 34.269531 21.355469 C 34.269531 22.6875 33.1875 23.769531 31.855469 23.769531 Z M 30.027344 24.6875 C 30.570312 24.988281 31.191406 25.160156 31.855469 25.160156 C 32.519531 25.160156 33.144531 24.988281 33.6875 24.6875 C 34.660156 24.804688 35.542969 25.328125 36.117188 26.113281 C 34.703125 26.664062 33.695312 28.042969 33.695312 29.652344 C 33.695312 30.480469 33.960938 31.242188 34.40625 31.867188 C 33.335938 32.261719 32.433594 33.019531 31.855469 33.988281 C 31.277344 33.019531 30.378906 32.261719 29.300781 31.867188 C 29.75 31.242188 30.015625 30.476562 30.015625 29.652344 C 30.015625 28.042969 29.007812 26.664062 27.589844 26.113281 C 28.167969 25.328125 29.050781 24.804688 30.023438 24.691406 Z M 43.140625 23.769531 C 41.808594 23.769531 40.726562 22.6875 40.726562 21.355469 C 40.726562 20.027344 41.808594 18.945312 43.140625 18.945312 C 44.472656 18.945312 45.554688 20.027344 45.554688 21.355469 C 45.554688 22.6875 44.472656 23.769531 43.140625 23.769531 Z M 41.308594 24.6875 C 41.851562 24.988281 42.476562 25.160156 43.140625 25.160156 C 43.804688 25.160156 44.429688 24.988281 44.972656 24.6875 C 45.941406 24.804688 46.824219 25.328125 47.402344 26.113281 C 45.984375 26.664062 44.980469 28.042969 44.980469 29.652344 C 44.980469 30.476562 45.242188 31.238281 45.6875 31.863281 C 44.605469 32.25 43.707031 33.003906 43.132812 33.972656 C 42.554688 33.011719 41.65625 32.257812 40.589844 31.867188 C 41.035156 31.242188 41.300781 30.476562 41.300781 29.652344 C 41.300781 28.042969 40.296875 26.664062 38.878906 26.113281 C 39.457031 25.328125 40.339844 24.804688 41.308594 24.6875 Z M 43.828125 36.585938 C 43.832031 36.554688 43.835938 36.519531 43.835938 36.488281 C 43.835938 34.71875 45.199219 33.191406 46.949219 32.984375 C 47.492188 33.285156 48.117188 33.457031 48.78125 33.457031 C 49.445312 33.457031 50.070312 33.285156 50.613281 32.984375 C 51.035156 33.035156 51.445312 33.164062 51.824219 33.359375 L 43.835938 41.351562 L 43.835938 36.683594 C 43.835938 36.652344 43.832031 36.621094 43.828125 36.585938 Z M 48.78125 32.066406 C 47.453125 32.066406 46.367188 30.984375 46.367188 29.652344 C 46.367188 28.324219 47.453125 27.242188 48.78125 27.242188 C 50.113281 27.242188 51.195312 28.324219 51.195312 29.652344 C 51.195312 30.984375 50.113281 32.066406 48.78125 32.066406 Z M 35.085938 29.652344 C 35.085938 28.324219 36.167969 27.242188 37.5 27.242188 C 38.828125 27.242188 39.910156 28.324219 39.910156 29.652344 C 39.910156 30.984375 38.828125 32.066406 37.5 32.066406 C 36.167969 32.066406 35.085938 30.984375 35.085938 29.652344 Z M 26.214844 27.242188 C 27.546875 27.242188 28.628906 28.324219 28.628906 29.652344 C 28.628906 30.984375 27.546875 32.066406 26.214844 32.066406 C 24.882812 32.066406 23.800781 30.984375 23.800781 29.652344 C 23.800781 28.324219 24.882812 27.242188 26.214844 27.242188 Z M 24.328125 32.988281 C 24.34375 32.988281 24.359375 32.984375 24.375 32.980469 C 24.921875 33.28125 25.546875 33.457031 26.214844 33.457031 C 26.878906 33.457031 27.503906 33.285156 28.046875 32.984375 C 29.800781 33.191406 31.160156 34.707031 31.160156 36.484375 C 31.160156 36.5 31.160156 36.515625 31.164062 36.53125 C 31.164062 36.546875 31.160156 36.558594 31.160156 36.574219 L 31.160156 41.347656 L 23.171875 33.359375 C 23.53125 33.167969 23.925781 33.042969 24.328125 32.988281 Z M 37.5 47.6875 L 32.550781 42.738281 L 32.550781 36.578125 C 32.550781 36.5625 32.550781 36.546875 32.550781 36.53125 C 32.550781 36.515625 32.550781 36.503906 32.550781 36.488281 C 32.550781 34.714844 33.914062 33.191406 35.667969 32.984375 C 36.210938 33.285156 36.835938 33.457031 37.5 33.457031 C 38.164062 33.457031 38.789062 33.285156 39.332031 32.984375 C 41.085938 33.195312 42.445312 34.710938 42.445312 36.488281 C 42.445312 36.523438 42.449219 36.554688 42.453125 36.585938 C 42.449219 36.621094 42.445312 36.652344 42.445312 36.683594 L 42.445312 42.738281 Z M 18.546875 14.019531 C 20.503906 12.0625 23.117188 10.984375 25.90625 10.984375 C 28.695312 10.984375 31.308594 12.0625 33.265625 14.019531 L 37.007812 17.761719 C 37.277344 18.03125 37.71875 18.03125 37.988281 17.761719 L 41.730469 14.019531 C 45.789062 9.960938 52.390625 9.960938 56.445312 14.019531 C 60.503906 18.078125 60.503906 24.679688 56.445312 28.734375 L 52.839844 32.34375 C 52.53125 32.148438 52.207031 31.988281 51.871094 31.867188 C 52.320312 31.242188 52.582031 30.476562 52.582031 29.652344 C 52.582031 27.589844 50.929688 25.902344 48.878906 25.851562 C 48.300781 24.789062 47.34375 23.976562 46.230469 23.570312 C 46.675781 22.945312 46.941406 22.179688 46.941406 21.355469 C 46.941406 19.257812 45.234375 17.550781 43.140625 17.550781 C 41.042969 17.550781 39.335938 19.257812 39.335938 21.355469 C 39.335938 22.179688 39.601562 22.945312 40.050781 23.570312 C 38.992188 23.957031 38.082031 24.703125 37.496094 25.679688 C 36.910156 24.699219 36.003906 23.953125 34.945312 23.566406 C 35.394531 22.941406 35.660156 22.179688 35.660156 21.355469 C 35.660156 19.257812 33.953125 17.550781 31.855469 17.550781 C 29.757812 17.550781 28.050781 19.257812 28.050781 21.355469 C 28.050781 22.179688 28.316406 22.945312 28.765625 23.566406 C 27.644531 23.976562 26.695312 24.785156 26.113281 25.851562 C 24.0625 25.90625 22.410156 27.589844 22.410156 29.652344 C 22.410156 30.476562 22.675781 31.242188 23.121094 31.867188 C 22.785156 31.988281 22.460938 32.148438 22.15625 32.34375 L 18.546875 28.734375 C 16.589844 26.777344 15.511719 24.167969 15.511719 21.378906 C 15.511719 18.589844 16.589844 15.976562 18.546875 14.019531 Z M 18.546875 14.019531 " fill-opacity="1" fill-rule="nonzero"/></g></svg>