<svg xmlns="http://www.w3.org/2000/svg" xmlns:xlink="http://www.w3.org/1999/xlink" width="100" zoomAndPan="magnify" viewBox="0 0 75 74.999997" height="100" preserveAspectRatio="xMidYMid meet" version="1.0"><defs><clipPath id="83f602424f"><path d="M 21 39 L 54 39 L 54 72.726562 L 21 72.726562 Z M 21 39 " clip-rule="nonzero"/></clipPath><clipPath id="af179bffeb"><path d="M 54 45 L 61.105469 45 L 61.105469 68 L 54 68 Z M 54 45 " clip-rule="nonzero"/></clipPath><clipPath id="a36d437f9d"><path d="M 32 5.226562 L 43 5.226562 L 43 38 L 32 38 Z M 32 5.226562 " clip-rule="nonzero"/></clipPath></defs><path fill="#1baa5a" d="M 31.253906 31.503906 L 31.253906 38.925781 C 31.933594 38.664062 32.613281 38.453125 33.34375 38.296875 C 33.34375 38.296875 33.34375 29.9375 33.34375 29.9375 C 33.292969 28.632812 32.980469 25.550781 30.941406 23.511719 C 28.328125 20.898438 24.046875 21.109375 23.886719 21.109375 C 23.367188 21.160156 22.949219 21.578125 22.894531 22.101562 C 22.894531 22.257812 22.6875 26.542969 25.300781 29.152344 C 27.128906 30.984375 29.792969 31.453125 31.253906 31.503906 Z M 29.480469 24.972656 C 30.785156 26.28125 31.152344 28.214844 31.203125 29.414062 C 30 29.3125 28.015625 28.945312 26.761719 27.691406 C 25.457031 26.386719 25.089844 24.453125 25.039062 23.25 C 26.238281 23.355469 28.171875 23.71875 29.480469 24.972656 Z M 29.480469 24.972656 " fill-opacity="1" fill-rule="nonzero"/><g clip-path="url(#83f602424f)"><path fill="#1baa5a" d="M 37.527344 39.917969 C 28.589844 39.917969 21.328125 47.179688 21.328125 56.113281 C 21.328125 65.050781 28.589844 72.3125 37.527344 72.3125 C 46.460938 72.3125 53.722656 65.050781 53.722656 56.113281 C 53.722656 47.179688 46.460938 39.917969 37.527344 39.917969 Z M 37.527344 70.222656 C 29.742188 70.222656 23.417969 63.898438 23.417969 56.113281 C 23.417969 48.328125 29.742188 42.007812 37.527344 42.007812 C 45.308594 42.007812 51.632812 48.328125 51.632812 56.113281 C 51.632812 63.898438 45.308594 70.222656 37.527344 70.222656 Z M 37.527344 70.222656 " fill-opacity="1" fill-rule="nonzero"/></g><path fill="#1baa5a" d="M 37.527344 44.097656 C 30.890625 44.097656 25.507812 49.480469 25.507812 56.113281 C 25.507812 62.75 30.890625 68.132812 37.527344 68.132812 C 44.160156 68.132812 49.542969 62.75 49.542969 56.113281 C 49.542969 49.480469 44.160156 44.097656 37.527344 44.097656 Z M 37.527344 66.042969 C 32.039062 66.042969 27.597656 61.601562 27.597656 56.113281 C 27.597656 50.628906 32.039062 46.1875 37.527344 46.1875 C 43.011719 46.1875 47.453125 50.628906 47.453125 56.113281 C 47.453125 61.601562 43.011719 66.042969 37.527344 66.042969 Z M 37.527344 66.042969 " fill-opacity="1" fill-rule="nonzero"/><path fill="#1baa5a" d="M 37.996094 55.175781 L 37.105469 55.175781 C 36.0625 55.175781 36.011719 54.285156 36.011719 54.128906 C 36.011719 53.449219 36.53125 53.136719 37.105469 53.136719 L 39.617188 53.136719 C 40.191406 53.136719 40.660156 52.667969 40.660156 52.089844 C 40.660156 51.515625 40.191406 51.046875 39.617188 51.046875 L 39.09375 51.046875 L 39.09375 49.84375 C 39.09375 49.269531 38.621094 48.800781 38.046875 48.800781 C 37.472656 48.800781 37.003906 49.269531 37.003906 49.84375 L 37.003906 50.992188 C 34.914062 51.046875 33.867188 52.5625 33.867188 54.078125 C 33.867188 55.59375 35.015625 57.210938 37.054688 57.210938 L 37.945312 57.210938 C 38.988281 57.210938 39.039062 57.996094 39.039062 58.203125 C 39.039062 58.832031 38.570312 59.25 37.945312 59.25 L 35.433594 59.25 C 34.859375 59.25 34.390625 59.71875 34.390625 60.292969 C 34.390625 60.871094 34.859375 61.339844 35.433594 61.339844 L 37.003906 61.339844 L 37.003906 62.28125 C 37.003906 62.855469 37.472656 63.324219 38.046875 63.324219 C 38.621094 63.324219 39.09375 62.855469 39.09375 62.28125 L 39.09375 61.128906 C 39.5625 60.972656 39.980469 60.710938 40.347656 60.292969 C 40.871094 59.71875 41.183594 58.9375 41.183594 58.152344 C 41.183594 56.742188 40.085938 55.175781 37.996094 55.175781 Z M 37.996094 55.175781 " fill-opacity="1" fill-rule="nonzero"/><path fill="#1baa5a" d="M 19.1875 45.925781 C 19.082031 45.558594 18.820312 45.300781 18.507812 45.195312 C 18.191406 45.089844 17.773438 45.140625 17.515625 45.402344 L 14.378906 48.015625 C 13.960938 48.382812 13.855469 49.0625 14.273438 49.480469 C 14.640625 49.898438 15.320312 50 15.738281 49.582031 L 16.101562 49.269531 C 14.847656 51.882812 14.273438 54.914062 14.535156 57.996094 C 14.796875 61.183594 15.84375 64.160156 17.617188 66.5625 C 17.933594 67.035156 18.613281 67.140625 19.082031 66.824219 C 19.550781 66.511719 19.65625 65.832031 19.34375 65.363281 C 17.828125 63.21875 16.886719 60.609375 16.679688 57.839844 C 16.46875 54.964844 16.992188 52.144531 18.246094 49.792969 C 18.246094 49.792969 18.296875 50.054688 18.296875 50.054688 C 18.453125 50.574219 19.03125 50.941406 19.605469 50.785156 C 20.179688 50.628906 20.492188 50.054688 20.335938 49.480469 Z M 19.1875 45.925781 " fill-opacity="1" fill-rule="nonzero"/><g clip-path="url(#af179bffeb)"><path fill="#1baa5a" d="M 60.777344 49.53125 C 61.140625 49.113281 61.089844 48.433594 60.671875 48.066406 L 57.535156 45.457031 C 57.277344 45.246094 56.910156 45.140625 56.542969 45.246094 C 56.230469 45.351562 55.917969 45.613281 55.863281 45.976562 L 54.820312 49.582031 C 54.664062 50.15625 54.976562 50.734375 55.550781 50.890625 C 56.074219 51.046875 56.699219 50.734375 56.859375 50.15625 L 56.910156 49.898438 C 58.164062 52.25 58.6875 55.070312 58.476562 57.941406 C 58.269531 60.765625 57.328125 63.324219 55.8125 65.46875 C 55.5 65.9375 55.601562 66.5625 56.074219 66.929688 C 56.542969 67.242188 57.222656 67.140625 57.535156 66.667969 C 59.3125 64.214844 60.359375 61.234375 60.621094 58.101562 C 60.878906 55.015625 60.304688 51.988281 59.050781 49.375 L 59.417969 49.6875 C 59.785156 50 60.410156 49.949219 60.777344 49.53125 Z M 60.777344 49.53125 " fill-opacity="1" fill-rule="nonzero"/></g><path fill="#1baa5a" d="M 41.707031 38.296875 C 42.4375 38.453125 43.117188 38.664062 43.796875 38.925781 L 43.796875 31.503906 C 45.257812 31.402344 47.921875 30.984375 49.75 29.152344 C 52.363281 26.542969 52.15625 22.257812 52.15625 22.101562 C 52.101562 21.578125 51.683594 21.160156 51.164062 21.109375 C 51.003906 21.109375 46.722656 20.898438 44.109375 23.511719 C 42.070312 25.550781 41.757812 28.632812 41.707031 29.9375 C 41.707031 29.9375 41.707031 38.296875 41.707031 38.296875 Z M 45.570312 24.972656 C 46.878906 23.667969 48.8125 23.300781 50.011719 23.25 C 49.910156 24.453125 49.542969 26.4375 48.289062 27.691406 C 46.984375 28.996094 45.050781 29.363281 43.847656 29.414062 C 43.953125 28.214844 44.316406 26.28125 45.570312 24.972656 Z M 45.570312 24.972656 " fill-opacity="1" fill-rule="nonzero"/><g clip-path="url(#a36d437f9d)"><path fill="#1baa5a" d="M 36.480469 37.878906 C 36.847656 37.878906 37.160156 37.828125 37.527344 37.828125 C 37.890625 37.828125 38.203125 37.828125 38.570312 37.878906 L 38.570312 21.527344 C 39.5625 20.53125 42.226562 17.503906 42.226562 13.792969 C 42.226562 9.351562 38.363281 5.851562 38.203125 5.695312 C 37.785156 5.328125 37.210938 5.328125 36.792969 5.695312 C 36.6875 5.851562 32.824219 9.351562 32.824219 13.792969 C 32.824219 17.503906 35.488281 20.585938 36.480469 21.527344 Z M 37.527344 7.992188 C 38.519531 9.089844 40.136719 11.285156 40.136719 13.792969 C 40.136719 16.300781 38.519531 18.496094 37.527344 19.59375 C 36.53125 18.496094 34.914062 16.300781 34.914062 13.792969 C 34.914062 11.285156 36.53125 9.089844 37.527344 7.992188 Z M 37.527344 7.992188 " fill-opacity="1" fill-rule="nonzero"/></g></svg>